<svg width="40" height="32" viewBox="0 0 40 32" fill="none" xmlns="http://www.w3.org/2000/svg">
<path d="M39.7406 24.3185V17.3936C39.7406 15.2296 38.875 14.364 38.875 14.364C38.875 14.364 36.711 11.5508 35.4126 9.81961C34.1142 8.08841 32.383 8.08841 32.383 8.08841H25.0254V7.0064C25.0254 5.49159 23.9434 4.40959 22.4285 4.40959H16.1529C14.6381 2.24558 12.0413 0.730774 9.22809 0.730774C4.46727 0.730774 0.788452 4.62599 0.788452 9.38681C0.788452 11.3344 1.43765 13.0656 2.51966 14.5804V24.1021C2.51966 25.6169 3.60166 26.6989 5.11647 26.6989H6.19848V26.9153C6.19848 29.5121 8.36249 31.6761 10.9593 31.6761C13.5561 31.6761 15.7201 29.5121 15.7201 26.9153C15.7201 26.6989 15.7201 26.6989 15.7201 26.6989H22.2121H22.4285C23.0777 26.6989 24.5926 26.6989 26.5402 26.6989V26.9153C26.5402 29.5121 28.7042 31.6761 31.301 31.6761C33.8978 31.6761 36.0618 29.5121 36.0618 26.9153C36.0618 26.6989 36.0618 26.6989 36.0618 26.6989C36.2782 26.6989 36.4946 26.6989 36.4946 26.6989C40.1734 26.9153 39.7406 24.3185 39.7406 24.3185ZM38.6586 16.7444C38.6586 16.7444 38.6586 16.9608 38.6586 17.3936H30.219C29.7862 17.3936 29.3534 16.9608 29.3534 16.528V13.0656C29.3534 12.6328 29.7862 12.2 30.219 12.2H35.8454C36.4946 12.8492 37.1438 13.7148 37.5766 14.364C38.6586 15.6624 38.6586 16.7444 38.6586 16.7444ZM9.22809 2.02918C13.3397 2.02918 16.8021 5.27519 16.8021 9.60321C16.8021 13.9312 13.3397 16.9608 9.22809 16.9608C5.11647 16.9608 1.87046 13.4984 1.87046 9.38681C1.87046 5.27519 5.11647 2.02918 9.22809 2.02918ZM10.7429 30.5941C8.79529 30.5941 7.28048 29.0793 7.28048 27.1317C7.28048 25.1841 8.79529 23.6693 10.7429 23.6693C12.6905 23.6693 14.2053 25.1841 14.2053 27.1317C14.2053 29.0793 12.6905 30.5941 10.7429 30.5941ZM15.0709 25.6169C14.4217 23.8857 12.6905 22.3709 10.7429 22.3709C8.79529 22.3709 7.06408 23.6693 6.41488 25.6169H4.90007C4.25087 25.6169 3.60166 24.9677 3.60166 24.3185V15.6624C5.11647 16.9608 7.06408 17.8264 9.22809 17.8264C13.9889 17.8264 17.6677 13.9312 17.6677 9.38681C17.6677 8.08841 17.2349 6.79 16.8021 5.708H22.4285C23.0777 5.708 23.7269 6.3572 23.7269 7.0064V24.3185C23.7269 24.9677 23.0777 25.6169 22.4285 25.6169H15.0709ZM31.0846 30.5941C29.137 30.5941 27.6222 29.0793 27.6222 27.1317C27.6222 25.1841 29.137 23.6693 31.0846 23.6693C33.0322 23.6693 34.547 25.1841 34.547 27.1317C34.547 29.0793 33.0322 30.5941 31.0846 30.5941ZM36.4946 25.8333H35.629C34.9798 23.8857 33.2486 22.5873 31.301 22.5873C29.137 22.5873 27.4058 23.8857 26.973 25.8333H24.809C25.2418 25.4005 25.4582 24.9677 25.4582 24.3185V8.95401C25.4582 8.95401 30.219 8.95401 32.1666 8.95401C34.1142 8.95401 34.9798 10.2524 34.9798 10.2524C34.9798 10.2524 34.7634 10.6852 35.1962 11.118H30.219C29.137 11.118 28.4878 11.9836 28.4878 12.8492V16.3116C28.4878 17.3936 29.3534 18.0428 30.219 18.0428H38.875C38.875 19.7741 38.875 22.3709 38.875 23.6693C38.6586 26.0497 36.4946 25.8333 36.4946 25.8333Z" fill="#C6F7FF"/>
</svg>
